# xmcd CD database file
#
# Track frame offsets:
#	182
#	19132
#	37132
#	55732
#	75007
#	97957
#	112582
#	128032
#	144757
#	164182
#
# Disc length: 2422 seconds
#
# Revision: 0
# Processed by: cddbd v1.5.2PL0 Copyright (c) Steve Scherf et al.
# Submitted via: ACXtractor (MTCDDB.DLL V2003.07.15)
#
DISCID=7009740a
DTITLE=Phill Davies - Working Man
DYEAR=2004
DGENRE=Country
TTITLE0=Droving Balladeer
TTITLE1=Legends of the Highlands
TTITLE2=Fondest Dreams
TTITLE3=Working Man
TTITLE4=Daddy's Hands
TTITLE5=Heaven's Right Here
TTITLE6=Bronwyn
TTITLE7=Goodbye Dad
TTITLE8=Just a Closer Walk with Thee
TTITLE9=Drover's Boy
EXTD=ID3G:   2 YEAR: 2004
EXTT0=
EXTT1=
EXTT2=
EXTT3=
EXTT4=
EXTT5=
EXTT6=
EXTT7=
EXTT8=
EXTT9=
PLAYORDER=
